# xmcd
#
# Track frame offsets:
#	150
#	13383
#	29271
#	39627
#	52391
#	64143
#	78395
#	92674
#	106532
#	124007
#	136873
#	152157
#	166441
#	178190
#	190349
#	200102
#	209821
#	224916
#
# Disc length: 3186 seconds
#
# Revision: 0
# Processed by: cddbd v1.5.1PL0 Copyright (c) Steve Scherf et al.
# Submitted via: audiograbber 1.83.01
#
DISCID=180c7012
DTITLE=Strait, George - Strait Out Of The Box Disc 04 - Strait, George - Strait
DTITLE=Out Of The Box Disc 04
DYEAR=1900
DGENRE=Country
TTITLE0=Wonderland Of Love
TTITLE1=I Cross My Heart
TTITLE2=Heartland
TTITLE3=When Did You Stop Loving Me
TTITLE4=Overnight Male
TTITLE5=The King Of Broken Hearts
TTITLE6=Where The Sidewalk ends
TTITLE7=Easy Come, Easy Go
TTITLE8=I'd Like To Have That One Back
TTITLE9=Lovebug
TTITLE10=The Man In Love With You
TTITLE11=Just Look At Me
TTITLE12=Stay Out Of My Arms
TTITLE13=Big Ball's In Cowtown (w/Asleep At The Wheel)
TTITLE14=The Big One
TTITLE15=Fly Me To the Moon (w/Frank Sinatra)
TTITLE16=Check Yes Or No
TTITLE17=I Know She Still Loves Me
EXTD=
EXTT0=
EXTT1=
EXTT2=
EXTT3=
EXTT4=
EXTT5=
EXTT6=
EXTT7=
EXTT8=
EXTT9=
EXTT10=
EXTT11=
EXTT12=
EXTT13=
EXTT14=
EXTT15=
EXTT16=
EXTT17=
PLAYORDER=
